<svg xmlns="http://www.w3.org/2000/svg" width="69.579" height="69.579" viewBox="0 0 69.579 69.579"><g transform="translate(-544.225 -1508.93) rotate(45)" fill="#fff"><path d="M 1500.999389648438 706.448974609375 C 1499.59326171875 706.448974609375 1498.449340820313 705.3050537109375 1498.449340820313 703.8989868164063 L 1498.449340820313 684.6995849609375 L 1477.999877929688 684.6995849609375 C 1477.283081054688 684.6995849609375 1476.699829101563 684.1160888671875 1476.699829101563 683.3988037109375 L 1476.699829101563 680.8995361328125 C 1476.699829101563 680.1827392578125 1477.283081054688 679.599609375 1477.999877929688 679.599609375 L 1498.449340820313 679.599609375 L 1498.449340820313 660.3992919921875 C 1498.449340820313 658.9932250976563 1499.59326171875 657.8493041992188 1500.999389648438 657.8493041992188 C 1502.405395507813 657.8493041992188 1503.549438476563 658.9932250976563 1503.549438476563 660.3992919921875 L 1503.549438476563 679.599609375 L 1523.999755859375 679.599609375 C 1524.716552734375 679.599609375 1525.299682617188 680.1827392578125 1525.299682617188 680.8995361328125 L 1525.299682617188 683.3988037109375 C 1525.299682617188 684.1160888671875 1524.716552734375 684.6995849609375 1523.999755859375 684.6995849609375 L 1503.549438476563 684.6995849609375 L 1503.549438476563 703.8989868164063 C 1503.549438476563 705.3050537109375 1502.405395507813 706.448974609375 1500.999389648438 706.448974609375 Z" stroke="none"/><path d="M 1500.999389648438 706.1489868164063 C 1502.2421875 706.1489868164063 1503.249389648438 705.1419067382813 1503.249389648438 703.8989868164063 L 1503.249389648438 684.3995971679688 L 1523.999755859375 684.3995971679688 C 1524.551391601563 684.3995971679688 1524.999633789063 683.951416015625 1524.999633789063 683.3988037109375 L 1524.999633789063 680.8995361328125 C 1524.999633789063 680.346923828125 1524.551391601563 679.8995971679688 1523.999755859375 679.8995971679688 L 1503.249389648438 679.8995971679688 L 1503.249389648438 660.3992919921875 C 1503.249389648438 659.1572875976563 1502.2421875 658.1492919921875 1500.999389648438 658.1492919921875 C 1499.75732421875 658.1492919921875 1498.749389648438 659.1572875976563 1498.749389648438 660.3992919921875 L 1498.749389648438 679.8995971679688 L 1477.999877929688 679.8995971679688 C 1477.448120117188 679.8995971679688 1476.999877929688 680.346923828125 1476.999877929688 680.8995361328125 L 1476.999877929688 683.3988037109375 C 1476.999877929688 683.951416015625 1477.448120117188 684.3995971679688 1477.999877929688 684.3995971679688 L 1498.749389648438 684.3995971679688 L 1498.749389648438 703.8989868164063 C 1498.749389648438 705.1419067382813 1499.75732421875 706.1489868164063 1500.999389648438 706.1489868164063 M 1500.999389648438 706.7489624023438 C 1499.427856445313 706.7489624023438 1498.1494140625 705.4705200195313 1498.1494140625 703.8989868164063 L 1498.1494140625 684.9995727539063 L 1477.999877929688 684.9995727539063 C 1477.11767578125 684.9995727539063 1476.39990234375 684.281494140625 1476.39990234375 683.3988037109375 L 1476.39990234375 680.8995361328125 C 1476.39990234375 680.017333984375 1477.11767578125 679.2996215820313 1477.999877929688 679.2996215820313 L 1498.1494140625 679.2996215820313 L 1498.1494140625 660.3992919921875 C 1498.1494140625 658.8278198242188 1499.427856445313 657.54931640625 1500.999389648438 657.54931640625 C 1502.570922851563 657.54931640625 1503.849365234375 658.8278198242188 1503.849365234375 660.3992919921875 L 1503.849365234375 679.2996215820313 L 1523.999755859375 679.2996215820313 C 1524.881958007813 679.2996215820313 1525.599609375 680.017333984375 1525.599609375 680.8995361328125 L 1525.599609375 683.3988037109375 C 1525.599609375 684.281494140625 1524.881958007813 684.9995727539063 1523.999755859375 684.9995727539063 L 1503.849365234375 684.9995727539063 L 1503.849365234375 703.8989868164063 C 1503.849365234375 705.4705200195313 1502.570922851563 706.7489624023438 1500.999389648438 706.7489624023438 Z" stroke="none" fill="#fff"/></g></svg>