<svg xmlns="http://www.w3.org/2000/svg" width="48" height="48" viewBox="0 0 48 48"><path d="M26,50A24,24,0,1,1,50,26,24,24,0,0,1,26,50Zm0-4.364A19.636,19.636,0,1,0,6.364,26,19.636,19.636,0,0,0,26,45.636ZM19.946,18.448l15.273-4.364a2.182,2.182,0,0,1,2.7,2.7L33.552,32.054a2.182,2.182,0,0,1-1.5,1.5L16.781,37.916a2.182,2.182,0,0,1-2.7-2.7l4.364-15.273A2.182,2.182,0,0,1,19.946,18.448Zm-.587,14.194L29.69,29.69l2.952-10.331L22.31,22.31ZM26,28.182A2.182,2.182,0,1,1,28.182,26,2.182,2.182,0,0,1,26,28.182Z" transform="translate(-2 -2)" fill="#779223"/></svg>