<svg xmlns="http://www.w3.org/2000/svg" width="48.6" height="48.6" viewBox="0 0 48.6 48.6"><g transform="translate(0.3 0.3)"><circle cx="1.901" cy="1.901" r="1.901" transform="translate(34.218 17.584)" fill="#779223" stroke="#779223" stroke-width="0.6"/><path d="M40.5,3.75H38.062V1.875a1.875,1.875,0,0,0-3.75,0V3.75H25.781V1.875a1.875,1.875,0,1,0-3.75,0V3.75H13.594V1.875a1.875,1.875,0,1,0-3.75,0V3.75H7.5A7.509,7.509,0,0,0,0,11.25V40.5A7.509,7.509,0,0,0,7.5,48H21.844a1.875,1.875,0,0,0,0-3.75H7.5A3.754,3.754,0,0,1,3.75,40.5V11.25A3.754,3.754,0,0,1,7.5,7.5H9.844V9.375a1.875,1.875,0,1,0,3.75,0V7.5h8.438V9.375a1.875,1.875,0,1,0,3.75,0V7.5h8.531V9.375a1.875,1.875,0,1,0,3.75,0V7.5H40.5a3.754,3.754,0,0,1,3.75,3.75V21.938a1.875,1.875,0,0,0,3.75,0V11.25A7.509,7.509,0,0,0,40.5,3.75Z" fill="#779223" stroke="#779223" stroke-width="0.6"/><path d="M281.344,270a11.344,11.344,0,1,0,11.344,11.344A11.357,11.357,0,0,0,281.344,270Zm0,18.938a7.594,7.594,0,1,1,7.594-7.594A7.6,7.6,0,0,1,281.344,288.938Z" transform="translate(-244.688 -244.688)" fill="#779223" stroke="#779223" stroke-width="0.6"/><path d="M375.594,333.844h-.844v-1.969a1.875,1.875,0,0,0-3.75,0v3.844a1.875,1.875,0,0,0,1.875,1.875h2.719a1.875,1.875,0,0,0,0-3.75Z" transform="translate(-336.219 -299.063)" fill="#779223" stroke="#779223" stroke-width="0.6"/><circle cx="1.901" cy="1.901" r="1.901" transform="translate(26.139 17.584)" fill="#779223" stroke="#779223" stroke-width="0.6"/><circle cx="1.901" cy="1.901" r="1.901" transform="translate(18.059 26.139)" fill="#779223" stroke="#779223" stroke-width="0.6"/><circle cx="1.901" cy="1.901" r="1.901" transform="translate(9.98 17.584)" fill="#779223" stroke="#779223" stroke-width="0.6"/><circle cx="1.901" cy="1.901" r="1.901" transform="translate(9.98 26.139)" fill="#779223" stroke="#779223" stroke-width="0.6"/><circle cx="1.901" cy="1.901" r="1.901" transform="translate(9.98 34.218)" fill="#779223" stroke="#779223" stroke-width="0.6"/><circle cx="1.901" cy="1.901" r="1.901" transform="translate(18.059 34.218)" fill="#779223" stroke="#779223" stroke-width="0.6"/><circle cx="1.901" cy="1.901" r="1.901" transform="translate(18.059 17.584)" fill="#779223" stroke="#779223" stroke-width="0.6"/></g></svg>