<svg xmlns="http://www.w3.org/2000/svg" width="60.2" height="60.2" viewBox="0 0 60.2 60.2"><g transform="translate(0.1 0.1)"><path d="M322.373,302.036c-.166-.554-.85-.813-1.551-.813a1.5,1.5,0,0,0-1.533.813l-3.565,11.616a1.07,1.07,0,0,0-.037.185c0,.591.868,1,1.514,1,.406,0,.72-.129.813-.48l.7-2.457h4.23l.7,2.457c.092.351.406.48.812.48.647,0,1.514-.424,1.514-1a.816.816,0,0,0-.037-.185Zm-3.158,7.978,1.606-5.67,1.607,5.67Zm0,0" transform="translate(-278.543 -265.72)" fill="#779223" stroke="#779223" stroke-width="0.2"/><path d="M53.535,24.476H35.523V16.783L41.377,12.6a1.758,1.758,0,0,0,0-2.861L35.452,5.51A6.475,6.475,0,0,0,29.058,0H6.465A6.472,6.472,0,0,0,0,6.465V29.059a6.472,6.472,0,0,0,6.465,6.465H24.477v7.693L18.623,47.4a1.758,1.758,0,0,0,0,2.861l5.924,4.232A6.475,6.475,0,0,0,30.942,60H53.535A6.472,6.472,0,0,0,60,53.535V30.942a6.472,6.472,0,0,0-6.465-6.465ZM6.465,32.008a2.953,2.953,0,0,1-2.949-2.949V6.464A2.952,2.952,0,0,1,6.465,3.515H29.058a2.952,2.952,0,0,1,2.949,2.949,1.757,1.757,0,0,0,.736,1.431l4.587,3.277-4.587,3.277a1.758,1.758,0,0,0-.736,1.431v8.6H30.942a6.472,6.472,0,0,0-6.465,6.465v1.067ZM56.484,53.535a2.952,2.952,0,0,1-2.949,2.949H30.941a2.952,2.952,0,0,1-2.949-2.949,1.757,1.757,0,0,0-.736-1.43l-4.587-3.277,4.587-3.277a1.758,1.758,0,0,0,.736-1.431V30.941a2.952,2.952,0,0,1,2.949-2.949H53.535a2.952,2.952,0,0,1,2.949,2.949Zm0,0" transform="translate(0)" fill="#779223" stroke="#779223" stroke-width="0.2"/><text transform="translate(11.982 23)" fill="#779223" stroke="#779223" stroke-width="0.6" font-size="23" font-family="RSU-Bold, RSU" font-weight="700"><tspan x="0" y="0">ก</tspan></text></g></svg>