<svg xmlns="http://www.w3.org/2000/svg" width="48" height="48" viewBox="0 0 48 48"><path d="M21.636,47.818A2.182,2.182,0,0,1,19.455,50H7.448A5.448,5.448,0,0,1,2,44.538V25.992a10.178,10.178,0,0,1,3.262-7.046L24.586,2.519a2.182,2.182,0,0,1,2.825,0L46.738,18.946A10.176,10.176,0,0,1,50,25.993V44.539A5.452,5.452,0,0,1,44.544,50h-12a2.182,2.182,0,0,1-2.182-2.182V34.727H21.636Zm22.908-2.182a1.089,1.089,0,0,0,1.092-1.1V25.992a5.905,5.905,0,0,0-1.724-3.721L26,7.045,8.087,22.271a5.925,5.925,0,0,0-1.724,3.721V44.538a1.084,1.084,0,0,0,1.084,1.1h9.825V32.545a2.182,2.182,0,0,1,2.182-2.182H32.545a2.182,2.182,0,0,1,2.182,2.182V45.636Z" transform="translate(-2 -2)" fill="#779223"/></svg>