<svg width="64" height="64" xmlns="http://www.w3.org/2000/svg" xmlns:xlink="http://www.w3.org/1999/xlink">
 <g>
  <title>background</title>
  <rect fill="none" id="canvas_background" height="66" width="66" y="-1" x="-1"/>
 </g>
 <g>
  <title>Layer 1</title>
  <defs>
   <rect y="0.021" x="0.011" width="63.957" id="SVGID_1_" height="63.957"/>
  </defs>
  <clipPath id="SVGID_2_">
   <use id="svg_2" xlink:href="#SVGID_1_"/>
  </clipPath>
  <path canvas="#000000" canvas-opacity="1" stroke="null" id="svg_3" fill="#779223" d="m43.846014,15.448884c-0.308714,0 -0.617428,-0.152663 -0.852581,-0.456432c-0.471512,-0.607538 -0.471512,-1.59206 0,-2.201156l1.878814,-2.427035c0.471512,-0.607538 1.232444,-0.607538 1.703957,0c0.471512,0.609095 0.471512,1.593618 0,2.201156l-1.878814,2.427035c-0.235153,0.305327 -0.543867,0.456432 -0.851375,0.456432zm-34.021251,44.597941l1.878814,-2.427035c0.470307,-0.609095 0.470307,-1.59206 0,-2.201156c-0.471512,-0.609095 -1.23365,-0.609095 -1.703957,0l-1.878814,2.427035c-0.470307,0.607538 -0.470307,1.59206 0,2.201156c0.235153,0.303769 0.543867,0.456432 0.852581,0.456432s0.616222,-0.152663 0.851375,-0.456432zm-4.602974,-24.842061c0,-0.861457 -0.539044,-1.557789 -1.204708,-1.557789l-2.655423,0c-0.665665,0 -1.205914,0.696332 -1.205914,1.557789c0,0.8599 0.539044,1.556231 1.205914,1.556231l2.655423,0c0.665665,0 1.204708,-0.694774 1.204708,-1.556231zm23.334439,-30.140102l0,-3.431809c0,-0.8599 -0.539044,-1.556231 -1.205914,-1.556231s-1.205914,0.696332 -1.205914,1.556231l0,3.431809c0,0.8599 0.539044,1.557789 1.205914,1.557789s1.205914,-0.697889 1.205914,-1.557789zm-16.852651,9.927789c0.470307,-0.607538 0.470307,-1.59206 0,-2.201156l-1.878814,-2.427035c-0.470307,-0.607538 -1.232444,-0.607538 -1.703957,0c-0.470307,0.609095 -0.470307,1.593618 0,2.201156l1.878814,2.427035c0.235153,0.303769 0.543867,0.456432 0.852581,0.456432s0.616222,-0.151106 0.851375,-0.456432zm52.242614,35.430353c0,7.519447 -4.735625,13.636885 -10.556573,13.636885l-25.96695,0c-4.511325,0 -8.279807,-4.082965 -9.254185,-9.532111c-5.190255,-4.125025 -8.40884,-11.44196 -8.40884,-19.322815c0,-12.530855 7.892708,-22.728141 17.594288,-22.728141c8.126656,0 15.154723,7.253066 17.058862,17.364674c2.999109,1.112261 5.603883,3.623417 7.272868,7.147136c0.600545,-0.141759 1.156472,-0.208744 1.703957,-0.208744c5.822154,0 10.556573,6.120553 10.556573,13.643116zm-45.997184,0.158894c0.018089,-0.2399 0.075973,-0.462663 0.103709,-0.696332c0.043413,-0.356734 0.090444,-0.704121 0.156769,-1.051508c0.080796,-0.422161 0.183299,-0.830302 0.297861,-1.235327c0.092855,-0.328693 0.184505,-0.652714 0.297861,-0.968945c0.139886,-0.392563 0.30389,-0.760201 0.473924,-1.129397c0.135062,-0.292864 0.266507,-0.587286 0.419658,-0.863015c0.195358,-0.350503 0.413629,-0.672965 0.635517,-0.995427c0.172446,-0.249246 0.335244,-0.507839 0.523367,-0.73995c0.247212,-0.303769 0.517337,-0.570151 0.789874,-0.841206c0.19777,-0.197839 0.384687,-0.408141 0.595722,-0.587286c0.301479,-0.252362 0.624664,-0.456432 0.947849,-0.663618c0.212241,-0.140201 0.411217,-0.297538 0.633105,-0.417487c0.370216,-0.193166 0.760932,-0.32402 1.152854,-0.461106c0.19777,-0.068543 0.384687,-0.169799 0.58728,-0.222764c0.602957,-0.155779 1.224003,-0.243015 1.861931,-0.243015c0.552309,0 1.114265,0.074774 1.696721,0.227437c1.849872,-6.256081 6.544496,-10.505729 11.797458,-10.505729c0.294243,0 0.59331,0.017136 0.8972,0.048291c-1.980111,-8.028844 -7.807088,-13.649347 -14.461323,-13.649347c-8.371456,0 -15.183665,8.798392 -15.183665,19.614121c-0.003618,6.028643 2.165822,11.692764 5.776329,15.381609zm43.587768,-0.158894c0,-5.807437 -3.655126,-10.529096 -8.147156,-10.529096c-0.608987,0 -1.251739,0.116834 -2.019906,0.370754c-0.542661,0.16201 -1.110647,-0.152663 -1.367507,-0.79603c-1.402478,-3.511256 -3.895103,-5.938292 -6.780855,-6.799749c-0.019295,-0.004673 -0.034972,-0.003116 -0.054266,-0.007789c-0.39554,-0.115276 -0.770579,-0.199397 -1.12753,-0.258593c-0.372627,-0.052965 -0.744049,-0.099698 -1.123912,-0.099698c-4.572827,0 -8.622286,3.980151 -9.845083,9.680101c-0.086826,0.408141 -0.299067,0.749297 -0.58728,0.950251c-0.14471,0.098141 -0.302684,0.158894 -0.461865,0.179146c-0.160387,0.021809 -0.321979,0 -0.476336,-0.063869c-0.772991,-0.316231 -1.467598,-0.467337 -2.124821,-0.467337c-3.919221,0 -7.107658,4.120352 -7.107658,9.184724c0,0.535879 0.057884,1.053065 0.125415,1.56402c0.001206,0.006231 -0.002412,0.009347 -0.001206,0.015578c0.582457,4.308844 3.48268,7.600453 6.983449,7.600453l25.96695,0c4.494442,0 8.149568,-4.721658 8.149568,-10.522865z" clip-path="url(#SVGID_2_)"/>
 </g>
</svg>